Coordinates
version=1
nRows=14
nColumns=40
inDegrees=yes

Units are S.I. units (second, meters, Newtons, ...)
Angles are in degrees.

endheader
time	pelvis_tilt	pelvis_list	pelvis_rotation	pelvis_tx	pelvis_ty	pelvis_tz	hip_flexion_r	hip_adduction_r	hip_rotation_r	knee_angle_r	knee_angle_r_beta	ankle_angle_r	subtalar_angle_r	mtp_angle_r	hip_flexion_l	hip_adduction_l	hip_rotation_l	knee_angle_l	knee_angle_l_beta	ankle_angle_l	subtalar_angle_l	mtp_angle_l	lumbar_extension	lumbar_bending	lumbar_rotation	arm_flex_r	arm_add_r	arm_rot_r	elbow_flex_r	pro_sup_r	wrist_flex_r	wrist_dev_r	arm_flex_l	arm_add_l	arm_rot_l	elbow_flex_l	pro_sup_l	wrist_flex_l	wrist_dev_l
     40.24500000	     -3.86708967	     -4.77609534	      1.47227369	      0.90919629	      0.91957288	      0.44845512	      3.08150398	     -1.03913336	    -12.41122940	     28.37581179	     28.37581179	     16.90693468	     -4.68802992	     -5.77717896	     27.50059864	     -5.45961889	     -1.74215332	     27.54160204	     27.54160204	      7.47416323	    -15.71447037	      4.57599293	     -8.16494294	      3.91575540	      4.10911447	     31.96529496	    -16.34123977	      2.11224608	    101.19023567	     44.33113375	      0.00000000	      0.00000000	     -7.69561816	     -9.07828786	      5.49726137	     27.99140252	     44.91125149	      0.00000000	      0.00000000
     40.25857143	     -3.94766266	     -4.66706378	      1.25876543	      0.90821582	      0.92039734	      0.44590931	      4.81832330	     -1.75315471	    -11.98818790	     31.98727818	     31.98727818	     15.66150701	     -6.21730707	     -6.67754366	     26.99872709	     -5.31060340	     -2.18801423	     27.35993227	     27.35993227	      7.91128854	    -15.44806029	      4.26571695	     -8.22626086	      3.64648401	      3.94485096	     30.68734825	    -16.20782864	      2.51303512	    100.68672047	     44.33588927	      0.00000000	      0.00000000	     -6.36822640	     -9.32720370	      5.37065191	     28.31358877	     44.95966151	      0.00000000	      0.00000000
     40.27214286	     -4.00333055	     -4.58070218	      1.06271298	      0.90710148	      0.92120044	      0.44340536	      6.66661817	     -2.43958732	    -11.61096010	     35.74689885	     35.74689885	     14.16574898	     -7.83125484	     -7.45154163	     26.46790243	     -5.18131875	     -2.62891720	     27.15421543	     27.15421543	      8.31334665	    -15.11397751	      3.91934105	     -8.34504903	      3.41775856	      3.74798792	     29.31545671	    -16.04270071	      2.93309582	    100.07834135	     44.34200868	      0.00000000	      0.00000000	     -4.97240012	     -9.59771381	      5.23604302	     28.70288707	     45.00882837	      0.00000000	      0.00000000
     40.28571429	     -4.13687855	     -4.48568164	      0.84635860	      0.90582178	      0.92177987	      0.44105113	      8.76801985	     -3.08308409	    -11.14395565	     39.65451545	     39.65451545	     12.44686039	     -9.71689957	     -8.13643357	     26.01290481	     -5.06732571	     -3.14543277	     26.91152020	     26.91152020	      8.67457514	    -14.71807776	      3.50040815	     -8.35806717	      3.17205015	      3.56522742	     27.84353964	    -15.96068535	      3.32440456	     99.31117291	     44.35439773	      0.00000000	      0.00000000	     -3.57838917	     -9.91360881	      5.06702740	     29.11895839	     45.06311262	      0.00000000	      0.00000000
     40.29928571	     -4.14747189	     -4.42647900	      0.70375575	      0.90448187	      0.92244988	      0.43865292	     10.77269337	     -3.67682647	    -10.80178722	     43.50704592	     43.50704592	     10.69249782	    -11.52828509	     -8.49135342	     25.46683556	     -4.96963078	     -3.58845052	     26.70574102	     26.70574102	      8.99687700	    -14.28219543	      3.06946056	     -8.50966868	      3.01699293	      3.33870320	     26.28861276	    -15.78234624	      3.72508324	     98.45430302	     44.36812754	      0.00000000	      0.00000000	     -2.09392418	    -10.24233865	      4.89989016	     29.60612841	     45.11702816	      0.00000000	      0.00000000
     40.31285714	     -4.16593595	     -4.38269922	      0.54601821	      0.90306278	      0.92303617	      0.43639565	     12.83496937	     -4.21418288	    -10.48011591	     47.25888271	     47.25888271	      8.94292030	    -13.28791482	     -8.50102229	     24.92544307	     -4.89926225	     -4.04123040	     26.48585517	     26.48585517	      9.34235709	    -13.81518533	      2.59445397	     -8.66100218	      2.87397090	      3.09661247	     24.64771934	    -15.62624688	      4.08446138	     97.45167277	     44.38723880	      0.00000000	      0.00000000	     -0.59287632	    -10.59019534	      4.72542421	     30.12849833	     45.17134238	      0.00000000	      0.00000000
     40.32642857	     -4.16082739	     -4.31425033	      0.43032013	      0.90156009	      0.92360955	      0.43415849	     14.88004027	     -4.74341440	    -10.19295384	     50.83354738	     50.83354738	      7.33510930	    -14.90259348	     -8.15802468	     24.38905427	     -4.80077157	     -4.51268798	     26.29379116	     26.29379116	      9.65736794	    -13.29700231	      2.10235373	     -8.83087861	      2.73546658	      2.84744820	     22.89891409	    -15.45428057	      4.41751207	     96.28925607	     44.41148724	      0.00000000	      0.00000000	      0.98096070	    -10.96613560	      4.54805728	     30.69393297	     45.22618984	      0.00000000	      0.00000000
     40.34000000	     -4.19374516	     -4.30967853	      0.25512615	      0.90003238	      0.92412214	      0.43210789	     16.96502848	     -5.13617747	     -9.87249860	     54.16438548	     54.16438548	      6.04896155	    -16.30723093	     -7.31685474	     23.85503857	     -4.80626089	     -5.04861268	     26.03635590	     26.03635590	      9.99028533	    -12.68226892	      1.47814047	     -8.91805249	      2.68399792	      2.72263254	     21.08946018	    -15.40876449	      4.57849146	     94.75007511	     44.45475022	      0.00000000	      0.00000000	      2.50577497	    -11.29359838	      4.34683694	     31.25420902	     45.28454909	      0.00000000	      0.00000000
     40.35357143	     -4.10231924	     -4.37672604	      0.16140807	      0.89855113	      0.92480746	      0.43017915	     18.96437968	     -5.40525412	     -9.63395271	     57.46115303	     57.46115303	      6.58890107	    -16.52539937	     -1.93800253	     23.19436767	     -4.92489978	     -5.68982169	     25.73847426	     25.73847426	      9.81686985	    -11.93834697	     -0.48375055	     -9.08708186	      2.70126718	      2.43946440	     19.43222796	    -14.70910815	      4.00334517	     92.14827327	     44.59238666	      0.00000000	      0.00000000	      4.24140225	    -11.56167770	      3.74545121	     31.44417209	     45.43391415	      0.00000000	      0.00000000
     40.36714286	     -3.87695337	     -4.45598535	      0.19430735	      0.89710144	      0.92573418	      0.42801072	     20.48883940	     -5.79898786	     -9.77537639	     59.88592363	     59.88592363	      5.73595432	    -17.19174590	     -1.74237908	     22.42090379	     -4.87027358	     -5.73458224	     25.49862453	     25.49862453	     10.19301996	    -11.66898902	     -0.66062666	     -9.52982507	      2.83339002	      1.92480731	     17.61804796	    -14.47189300	      4.45506421	     91.22585303	     44.60200023	      0.00000000	      0.00000000	      5.81134716	    -12.01963196	      3.62425553	     32.02300236	     45.47676797	      0.00000000	      0.00000000
     40.38071429	     -3.90922722	     -4.38705579	     -0.03599400	      0.89560770	      0.92648014	      0.42628280	     22.41625768	     -6.11242617	     -9.42525601	     62.12831503	     62.12831503	      5.73381257	    -17.59124473	      0.69513698	     21.81708446	     -4.87043604	     -6.54252362	     25.13564905	     25.13564905	     10.42885848	    -10.79913603	     -1.34345419	     -9.52436625	      2.69239393	      2.27438492	     15.55719198	    -14.55812695	      4.10225244	     87.84930752	     44.72965912	      0.00000000	      0.00000000	      7.68903022	    -12.18086053	      3.42792707	     32.62783821	     45.54739546	      0.00000000	      0.00000000
     40.39428571	     -3.86680674	     -4.35671538	     -0.07976352	      0.89408723	      0.92732856	      0.42444424	     24.02162142	     -6.48536479	     -9.41291662	     63.70781401	     63.70781401	      5.38472784	    -17.89002909	      1.04940340	     21.15565068	     -4.74428787	     -6.79828684	     24.74153540	     24.74153540	     10.70815781	    -10.42967321	     -1.49460745	     -9.74414878	      2.66551065	      1.80573915	     13.52869136	    -14.35973331	      4.44253540	     86.50737189	     44.75623637	      0.00000000	      0.00000000	      9.19658244	    -12.65861855	      3.29319081	     33.20296818	     45.59029546	      0.00000000	      0.00000000
     40.40785714	     -3.82333909	     -4.40266853	     -0.24280161	      0.89270298	      0.92830202	      0.42293090	     25.60124734	     -6.60121308	     -9.20896969	     64.91828443	     64.91828443	      5.85962421	    -17.88735804	      3.51955018	     20.40188367	     -4.80135434	     -7.36363821	     24.23553225	     24.23553225	     10.89372107	     -9.68425821	     -2.21537686	     -9.77740836	      2.67123285	      1.81338399	     12.01168582	    -13.86738469	      3.61591726	     82.18116831	     44.93253893	      0.00000000	      0.00000000	     10.94213648	    -12.87386902	      3.10317814	     33.54001369	     45.65929100	      0.00000000	      0.00000000
     40.42142857	     -3.76014799	     -4.43189989	     -0.37337004	      0.89133081	      0.92932163	      0.42146966	     26.93546758	     -6.73705427	     -9.09745075	     65.44294802	     65.44294802	      5.85106313	    -17.92689428	      3.90784992	     19.62528182	     -4.76597271	     -7.67669850	     23.71117763	     23.71117763	     11.12323502	     -9.27930070	     -2.42337580	     -9.95056262	      2.69134523	      1.89762727	      9.98533055	    -14.06996370	      3.73224842	     79.76914877	     45.00322141	      0.00000000	      0.00000000	     12.62073189	    -13.12482983	      2.89509417	     34.35123429	     45.71830809	      0.00000000	      0.00000000
